PathFileType	4	(X/Y/Z)	./resultDataOpenSim/trcMotMarkerGrf/sub10/qtm-01-01.trc
DataRate	CameraRate	NumFrames	NumMarkers	Units	OrigDataRate	OrigDataStartFrame	OrigNumFrames
250.000000	250.000000	14	24	m	250.000000	420	479
Frame#	Time	L.Toe.Tip			R.Toe.Tip			L.Ankle.Lat			R.Ankle.Lat			L.Ankle.Med			R.Ankle.Med			L.Heel			R.Heel			L.Knee.Lat			R.Knee.Lat			L.Knee.Med			R.Knee.Med			L.Thigh.Upper			R.Thigh.Upper			L.ASIS			R.ASIS			V.Sacral			L.Acromium			R.Acromium			C7			L.Elbow			R.Elbow			L.Wrist.Lat			R.Wrist.Lat
		X1	Y1	Z1	X2	Y2	Z2	X3	Y3	Z3	X4	Y4	Z4	X5	Y5	Z5	X6	Y6	Z6	X7	Y7	Z7	X8	Y8	Z8	X9	Y9	Z9	X10	Y10	Z10	X11	Y11	Z11	X12	Y12	Z12	X13	Y13	Z13	X14	Y14	Z14	X15	Y15	Z15	X16	Y16	Z16	X17	Y17	Z17	X18	Y18	Z18	X19	Y19	Z19	X20	Y20	Z20	X21	Y21	Z21	X22	Y22	Z22	X23	Y23	Z23	X24	Y24	Z24

420	1.676	1.4374955	0.12339105	-0.11197028	0.76760868	0.037851346	0.0080624036	1.3082927	0.081865539	-0.13463584	0.62879186	0.075460387	0.037658899	1.3127329	0.11333539	-0.056552343	0.65938256	0.099383809	-0.043884968	1.2690064	0.028421696	-0.085967426	0.57735049	0.061474047	-0.012295027	1.1444829	0.44725966	-0.16472573	0.79809015	0.44189385	0.092463798	1.1730876	0.42073455	-0.044963655	0.82786438	0.44057089	-0.034016363	1.0313609	0.80093429	-0.21831401	0.90124594	0.84233354	0.14502797	1.0656708	0.91563532	-0.14300999	1.0030468	0.92268199	0.10147483	0.84023908	0.93059132	-0.084967322	0.9642389	1.391976	-0.18686481	0.94518328	1.3818731	0.13870154	0.86757933	1.4141576	-0.032657121	0.83381241	1.0753242	-0.23797384	1.0062467	1.0281515	0.20111873	0.91160439	0.85106684	-0.29045919	1.2488608	0.96944613	0.16671589
421	1.68	1.4458368	0.12395115	-0.11149526	0.76773319	0.037856699	0.0080439454	1.3168323	0.081958014	-0.13462219	0.6294908	0.076760872	0.037876124	1.3210883	0.11290004	-0.056810971	0.66017368	0.10035082	-0.043761307	1.2776394	0.028278804	-0.086127849	0.57774812	0.06335881	-0.011852814	1.1527403	0.44673522	-0.16446073	0.8022846	0.44144187	0.092234175	1.1784955	0.41949581	-0.045076176	0.83263789	0.43979774	-0.034064223	1.0379457	0.80015947	-0.21825523	0.90620573	0.84156024	0.14457949	1.0719699	0.91451168	-0.14262021	1.0084123	0.92171553	0.10179547	0.84655618	0.92950796	-0.086596852	0.97004685	1.3909103	-0.18719679	0.950606	1.3809153	0.13837614	0.87311718	1.4131058	-0.033141278	0.83969265	1.0743426	-0.23810478	1.0122473	1.0271429	0.20027109	0.91627391	0.84984706	-0.29083211	1.2554092	0.97016924	0.16565431
422	1.684	1.4536288	0.12392941	-0.11116718	0.76787923	0.037864214	0.0080371047	1.3247556	0.081814376	-0.13460518	0.630266	0.078112796	0.038117131	1.328869	0.11227875	-0.057050079	0.66103088	0.10138618	-0.043603834	1.2855386	0.028021027	-0.086206867	0.5782008	0.065356962	-0.011373142	1.1609967	0.4462024	-0.16421614	0.80660054	0.44099389	0.09200176	1.1834312	0.41833457	-0.045257512	0.83749049	0.43902066	-0.034090507	1.0445504	0.79954816	-0.21820232	0.91125811	0.84078156	0.14412853	1.0783557	0.91343123	-0.1422197	1.0138637	0.92077555	0.10212781	0.85287753	0.92852552	-0.087569255	0.97589715	1.3898947	-0.18756266	0.95604868	1.380007	0.13802469	0.87868431	1.4120916	-0.033665248	0.84563308	1.0734039	-0.23825988	1.0182789	1.0262177	0.19947125	0.92101248	0.84866265	-0.29120568	1.2618508	0.9708247	0.16460254
423	1.688	1.4608301	0.12348548	-0.11081951	0.76804949	0.037875763	0.0080456247	1.3320875	0.081478283	-0.13461701	0.63109673	0.079549179	0.03835726	1.3358902	0.11175173	-0.057206919	0.66195559	0.10249151	-0.043405988	1.2927182	0.027645116	-0.086305217	0.57875319	0.067462208	-0.010925864	1.1692291	0.44565879	-0.16399605	0.81102495	0.44055554	0.091783265	1.1882653	0.41731956	-0.045435804	0.84242031	0.43825069	-0.034095382	1.0511761	0.79908956	-0.21816236	0.91641768	0.83999416	0.14367731	1.0848077	0.91241543	-0.14181513	1.019408	0.9198588	0.10246057	0.85914756	0.9276331	-0.088487239	0.98179447	1.3889249	-0.18795119	0.96150864	1.379156	0.13764565	0.8842889	1.4111166	-0.034237239	0.85164238	1.0725008	-0.23843684	1.0242929	1.0253525	0.19868175	0.92582927	0.84751818	-0.29157667	1.268187	0.97140988	0.16356963
424	1.692	1.4674285	0.12274814	-0.11032625	0.76824398	0.037889745	0.0080677346	1.3388477	0.080985022	-0.13466086	0.63195852	0.081103703	0.038554437	1.3419806	0.11142535	-0.057378228	0.66294707	0.10367114	-0.043159605	1.2992203	0.027148458	-0.08649166	0.57941732	0.069674476	-0.010523021	1.1774144	0.44510195	-0.16380464	0.81554907	0.44013497	0.09158546	1.1935648	0.41651239	-0.045528944	0.84742859	0.43749405	-0.034079317	1.0578216	0.79876682	-0.21815118	0.92169741	0.83919626	0.14323224	1.0912971	0.91149223	-0.1414164	1.0250359	0.91895752	0.10279083	0.86538863	0.92683259	-0.089552988	0.9877389	1.3879956	-0.18835557	0.96698389	1.3783699	0.13723873	0.88993897	1.4101919	-0.034853647	0.85773804	1.0716286	-0.238633	1.0302343	1.0245335	0.19785984	0.93073516	0.84641634	-0.29194439	1.2744177	0.9719271	0.16256161
425	1.696	1.4734585	0.12179442	-0.10968206	0.76845996	0.03790288	0.0080974236	1.3450611	0.080354209	-0.13472896	0.63284994	0.082785904	0.038695842	1.3470871	0.11131161	-0.057644651	0.6640065	0.10492943	-0.042863144	1.3050983	0.026524505	-0.086796468	0.58018026	0.071999916	-0.01011882	1.1855287	0.44452935	-0.16364617	0.82017131	0.43974021	0.091406208	1.1995501	0.41594849	-0.045491169	0.85251593	0.43675278	-0.034045736	1.0644862	0.79855935	-0.21818283	0.92710819	0.83839004	0.14279445	1.0978257	0.91067491	-0.14103804	1.0307343	0.91806774	0.10312423	0.87169879	0.92607974	-0.090540587	0.99372138	1.3871057	-0.18878317	0.97247314	1.3776555	0.13680942	0.89563607	1.4093273	-0.035505798	0.86391858	1.07079	-0.23885077	1.0360776	1.0237549	0.19698609	0.93573404	0.8453597	-0.292308	1.2805378	0.9723837	0.16157246
426	1.7	1.4789948	0.12064359	-0.10900311	0.76869629	0.03791345	0.0081292656	1.350765	0.079591213	-0.13481362	0.63380716	0.084577685	0.038848649	1.3515774	0.11120647	-0.057913144	0.66514005	0.10627135	-0.042517969	1.3104184	0.025767616	-0.087195827	0.58103389	0.074447988	-0.0096652658	1.1935473	0.44393842	-0.16352499	0.82489504	0.43937549	0.09124194	1.2060345	0.41561576	-0.045333514	0.85767873	0.43603343	-0.034000463	1.0711696	0.79844991	-0.2182681	0.93266189	0.83758332	0.14236115	1.1044072	0.90996587	-0.14068943	1.0364979	0.91718461	0.10347107	0.87821643	0.92525231	-0.090937858	0.99973391	1.3862606	-0.18924331	0.97797363	1.3770142	0.13636503	0.90137204	1.4085176	-0.036188241	0.87016307	1.0700098	-0.23912364	1.0418268	1.0230164	0.19606338	0.94082391	0.84435022	-0.29266534	1.2865385	0.97278694	0.16059137
427	1.704	1.4841305	0.11926898	-0.10844568	0.7689566	0.037921979	0.0081627485	1.3560084	0.078691616	-0.13490585	0.63488015	0.086452745	0.039113377	1.3560681	0.11075145	-0.057997528	0.66635938	0.10770597	-0.042124845	1.3152606	0.024876951	-0.087615676	0.58198239	0.077028556	-0.0091414595	1.2014455	0.44332661	-0.16344541	0.82972714	0.43903989	0.091091608	1.2127652	0.41546208	-0.045099639	0.86290929	0.4353525	-0.033950379	1.0778729	0.79842766	-0.21841542	0.93836644	0.83678416	0.14193151	1.1110339	0.90937859	-0.14037577	1.0423355	0.91628401	0.10384705	0.88500943	0.92425598	-0.090423109	1.0057788	1.3854684	-0.18973407	0.98349398	1.3764374	0.13590505	0.90713619	1.4077515	-0.036898	0.8764541	1.0693422	-0.23953269	1.0474933	1.0223196	0.19509889	0.94600689	0.84338709	-0.2930143	1.2924159	0.97313568	0.15961625
428	1.708	1.4889371	0.11764923	-0.10808612	0.76924738	0.03792984	0.0082025729	1.3608442	0.077649522	-0.13499087	0.63609335	0.088403485	0.039521352	1.360845	0.10976224	-0.057840955	0.66768269	0.10924367	-0.041686533	1.3197032	0.023857869	-0.087974684	0.58303528	0.079748439	-0.0085528837	1.2092006	0.4426916	-0.16341178	0.83467741	0.43873347	0.090958561	1.2195763	0.41542637	-0.044844568	0.8682035	0.43472983	-0.033904173	1.084602	0.79848556	-0.2186232	0.94422574	0.83599507	0.14151269	1.1176949	0.90892724	-0.14010467	1.0482669	0.91531481	0.10427756	0.89197318	0.92317255	-0.089374915	1.0118629	1.3847324	-0.1902469	0.98908186	1.3759039	0.13540789	0.91292387	1.4070286	-0.037627954	0.8827948	1.0688358	-0.24012678	1.0530832	1.0216681	0.19409617	0.95128839	0.84246609	-0.29335483	1.2981725	0.9734223	0.15865482
429	1.712	1.4934516	0.11578694	-0.10788951	0.76957412	0.037941312	0.008251654	1.3653202	0.07646662	-0.13504679	0.63744426	0.09044712	0.04003098	1.3657299	0.10833181	-0.057555198	0.6691298	0.11088768	-0.041206822	1.3237956	0.022741408	-0.088222488	0.584202	0.082611936	-0.0079213915	1.2167935	0.44203122	-0.16342893	0.83975659	0.43846185	0.090849246	1.2263076	0.41546733	-0.044643	0.87356673	0.43417578	-0.033868144	1.0913665	0.79861695	-0.21887745	0.95024523	0.83521456	0.14112022	1.1243994	0.90861167	-0.1398865	1.0543331	0.91424853	0.1047593	0.89890802	0.9222032	-0.088597405	1.0179846	1.3840505	-0.19077769	0.9948323	1.3753799	0.13482367	0.91873619	1.4063526	-0.038363307	0.88920939	1.0684621	-0.24080341	1.0585922	1.021067	0.19305245	0.95666955	0.84158408	-0.29369127	1.3038144	0.97364138	0.15771556
430	1.716	1.4976906	0.11370515	-0.10776724	0.76994085	0.037966155	0.0083035383	1.3694754	0.075155041	-0.13505	0.6389337	0.092611576	0.040599978	1.3704429	0.10664646	-0.057264595	0.67070938	0.11262835	-0.040688608	1.3275304	0.021624322	-0.088349663	0.58549115	0.085621835	-0.0072685612	1.2242093	0.44134322	-0.16350221	0.84497188	0.43823069	0.090767363	1.2327544	0.41557506	-0.044579526	0.87900882	0.43368923	-0.033841023	1.0981763	0.79881585	-0.21916203	0.95642926	0.83444152	0.14076814	1.1311623	0.90842712	-0.13973134	1.060593	0.9131585	0.10520598	0.9057221	0.92144901	-0.0884739	1.0241336	1.3834169	-0.1913259	1.0008146	1.3748438	0.13411007	0.92457624	1.4057201	-0.039093563	0.89571714	1.0681068	-0.24138051	1.0640094	1.0205193	0.19196327	0.96215069	0.84074073	-0.29402925	1.3093505	0.97379113	0.15680244
431	1.72	1.5016709	0.11144052	-0.10764256	0.77034882	0.038009778	0.0083452507	1.3733436	0.073732896	-0.13498423	0.6405755	0.094915886	0.041212974	1.3748526	0.10483648	-0.057009616	0.67242161	0.11444873	-0.040136071	1.3308367	0.020680562	-0.088381095	0.58691029	0.088778047	-0.0066048683	1.231432	0.44062485	-0.16363579	0.85032604	0.43803882	0.090709194	1.2387721	0.41575425	-0.044695184	0.88453711	0.43326781	-0.03381794	1.1050389	0.79907929	-0.21946478	0.96277748	0.83367851	0.14045874	1.1379889	0.9083712	-0.13964562	1.0670712	0.91218884	0.10550164	0.91250705	0.92084983	-0.088744448	1.0303036	1.3828236	-0.19189034	1.0069454	1.3743258	0.13330021	0.93044749	1.4051321	-0.039827896	0.90230354	1.0676678	-0.24180251	1.0693305	1.0200217	0.19083313	0.96773772	0.83993537	-0.29436797	1.3147873	0.97386865	0.15591647
432	1.724	1.5054405	0.10899468	-0.1074974	0.77078769	0.038056171	0.0083719274	1.376955	0.072221574	-0.13484811	0.64237748	0.097348522	0.041856677	1.3789629	0.10294753	-0.056763007	0.67427378	0.11633822	-0.039556704	1.3336362	0.020076964	-0.088351095	0.58846063	0.092084447	-0.0059337769	1.2384249	0.43987244	-0.1638286	0.85582374	0.43788222	0.090670338	1.2443896	0.41599578	-0.044955831	0.89015986	0.43291125	-0.033794661	1.1119599	0.79940597	-0.21977384	0.96929046	0.83293351	0.14018542	1.1448787	0.90844093	-0.13963054	1.0737128	0.9114242	0.10561958	0.91943265	0.92030325	-0.088990417	1.0364939	1.3822695	-0.19247195	1.0130229	1.3738889	0.13249072	0.93635102	1.404594	-0.040587231	0.90893958	1.0671335	-0.24216829	1.0745548	1.019564	0.18967327	0.97343893	0.83916767	-0.29470122	1.3201251	0.97386923	0.15505766
433	1.728	1.5091039	0.10626803	-0.10738434	0.77123371	0.038072544	0.0083999325	1.3803343	0.07065587	-0.13466114	0.64433495	0.09986297	0.042495947	1.3828257	0.10098588	-0.056470546	0.67628108	0.1182956	-0.038959165	1.3359164	0.019835609	-0.088264651	0.59014574	0.095549982	-0.0052652827	1.245103	0.43908157	-0.16407052	0.86147298	0.43775825	0.090649402	1.2497525	0.41627454	-0.045290266	0.89589366	0.43261313	-0.033764764	1.1189445	0.79979182	-0.22007822	0.97597085	0.8322142	0.13994106	1.15183	0.90863157	-0.13968175	1.0804312	0.91084032	0.10562759	0.92661293	0.9197408	-0.089004828	1.0427059	1.3817638	-0.19307367	1.0189311	1.3735603	0.13173946	0.94228243	1.4040991	-0.041379543	0.91562186	1.0665583	-0.24259708	1.0796685	1.0191282	0.1884874	0.97925849	0.83844059	-0.29502739	1.3253621	0.97379014	0.15422641
